<svg width="148" height="37" viewBox="0 0 148 37" fill="none" xmlns="http://www.w3.org/2000/svg">
<path d="M15.1031 2.11577C16.0313 1.57991 17.1749 1.57989 18.1031 2.11577L21.8531 4.28081L16.0309 7.64311C15.8834 7.68713 15.7397 7.74789 15.6031 7.82671L8.07675 12.1724C7.45806 12.5296 7.07689 13.1895 7.07675 13.9039V22.5953C7.07691 23.3096 7.45807 23.9695 8.07675 24.3267L15.6031 28.6724C16.2219 29.0295 16.9844 29.0296 17.6031 28.6724L25.1295 24.3267C25.748 23.9695 26.1293 23.3095 26.1295 22.5953V16.8238L31.3258 13.8238V25.0171C31.3258 26.0888 30.7538 27.0798 29.8258 27.6158L18.1031 34.3833C17.1749 34.9192 16.0313 34.9192 15.1031 34.3833L3.38046 27.6158C2.45226 27.0799 1.88046 26.0889 1.88046 25.0171V11.482C1.88046 10.4102 2.45226 9.41925 3.38046 8.88335L15.1031 2.11577Z" fill="#2762FF"/>
<path d="M31.3257 20.2628L26.0337 23.2023C26.0955 23.0085 26.1294 22.8042 26.1294 22.5948V16.8234L31.3257 13.8243V20.2628Z" fill="#FF9B30"/>
<path d="M16 18.4996L31.3467 10.0116L31.3467 15.812L16 24.4274L16 18.4996Z" fill="#FF9B30"/>
<path d="M16 12.8038L21.0744 9.60215V21.4467L16 24.6483V12.8038Z" fill="#FF9B30"/>
<path d="M49.038 11.3625C51.846 11.3625 54.078 12.7845 54.888 15.3045H51.99C51.414 14.2425 50.37 13.6845 49.038 13.6845C46.788 13.6845 45.222 15.2865 45.222 17.7885C45.222 20.3445 46.806 21.9285 49.146 21.9285C51.09 21.9285 52.332 20.8125 52.71 19.0305H48.39V17.1045H55.194V19.3005C54.69 21.8565 52.404 24.1965 49.056 24.1965C45.402 24.1965 42.63 21.5505 42.63 17.7885C42.63 14.0265 45.402 11.3625 49.038 11.3625ZM56.4104 19.0665C56.4104 15.9525 58.4264 13.9545 60.9644 13.9545C62.5664 13.9545 63.6644 14.7105 64.2584 15.5385V14.1165H66.7964V24.0885H64.2584V22.6305C63.6644 23.4945 62.5304 24.2505 60.9464 24.2505C58.4264 24.2505 56.4104 22.1805 56.4104 19.0665ZM64.2584 19.1025C64.2584 17.2125 62.9984 16.1685 61.6124 16.1685C60.2624 16.1685 58.9844 17.1765 58.9844 19.0665C58.9844 20.9565 60.2624 22.0365 61.6124 22.0365C62.9984 22.0365 64.2584 20.9925 64.2584 19.1025ZM76.9976 21.2445C76.9976 22.9545 75.5036 24.2505 73.0736 24.2505C70.5716 24.2505 68.8256 22.7925 68.7176 20.9385H71.2556C71.3456 21.6945 72.0476 22.2705 73.0556 22.2705C74.0456 22.2705 74.5856 21.8205 74.5856 21.2445C74.5856 19.4625 68.9516 20.5965 68.9516 16.9425C68.9516 15.2865 70.4276 13.9545 72.8936 13.9545C75.3056 13.9545 76.7636 15.2685 76.9076 17.2485H74.4956C74.4236 16.4745 73.8116 15.9525 72.8216 15.9525C71.8856 15.9525 71.3996 16.3305 71.3996 16.9065C71.3996 18.7245 76.9256 17.5905 76.9976 21.2445ZM92.1393 20.4525C92.1393 22.4325 90.5553 24.2145 87.6933 24.2145C85.0833 24.2145 83.0673 22.8465 83.0313 20.4705H85.7313C85.8033 21.4785 86.4693 22.1445 87.6393 22.1445C88.8273 22.1445 89.5293 21.5145 89.5293 20.6145C89.5293 17.8965 83.0493 19.5345 83.0673 14.9805C83.0673 12.7125 84.9033 11.3445 87.4953 11.3445C90.0693 11.3445 91.8333 12.6585 91.9953 14.9265H89.2233C89.1693 14.0985 88.5033 13.4505 87.4233 13.4325C86.4333 13.3965 85.6953 13.8825 85.6953 14.9085C85.6953 17.4285 92.1393 16.0245 92.1393 20.4525ZM94.72 20.9925V16.1865H93.532V14.1165H94.72V11.6505H97.258V14.1165H99.49V16.1865H97.258V21.0105C97.258 21.6765 97.528 21.9645 98.32 21.9645H99.49V24.0885H97.906C95.998 24.0885 94.72 23.2785 94.72 20.9925ZM100.655 19.0665C100.655 15.9525 102.671 13.9545 105.209 13.9545C106.811 13.9545 107.909 14.7105 108.503 15.5385V14.1165H111.041V24.0885H108.503V22.6305C107.909 23.4945 106.775 24.2505 105.191 24.2505C102.671 24.2505 100.655 22.1805 100.655 19.0665ZM108.503 19.1025C108.503 17.2125 107.243 16.1685 105.857 16.1685C104.507 16.1685 103.229 17.1765 103.229 19.0665C103.229 20.9565 104.507 22.0365 105.857 22.0365C107.243 22.0365 108.503 20.9925 108.503 19.1025ZM113.898 20.9925V16.1865H112.71V14.1165H113.898V11.6505H116.436V14.1165H118.668V16.1865H116.436V21.0105C116.436 21.6765 116.706 21.9645 117.498 21.9645H118.668V24.0885H117.084C115.176 24.0885 113.898 23.2785 113.898 20.9925ZM120.48 24.0885V14.1165H123V24.0885H120.48ZM121.758 12.9285C120.858 12.9285 120.21 12.2805 120.21 11.4525C120.21 10.6245 120.858 9.9765 121.758 9.9765C122.64 9.9765 123.306 10.6245 123.306 11.4525C123.306 12.2805 122.64 12.9285 121.758 12.9285ZM135.12 19.1025C135.12 22.2345 132.816 24.2505 129.918 24.2505C127.038 24.2505 124.86 22.2345 124.86 19.1025C124.86 15.9525 127.11 13.9545 129.99 13.9545C132.87 13.9545 135.12 15.9525 135.12 19.1025ZM127.416 19.1025C127.416 21.0825 128.568 22.0545 129.918 22.0545C131.25 22.0545 132.528 21.0825 132.528 19.1025C132.528 17.1045 131.286 16.1505 129.954 16.1505C128.622 16.1505 127.416 17.1045 127.416 19.1025ZM143.953 24.0885V18.5805C143.953 16.9785 143.071 16.1145 141.739 16.1145C140.371 16.1145 139.489 16.9785 139.489 18.5805V24.0885H136.969V14.1165H139.489V15.3585C140.137 14.5125 141.217 13.9725 142.495 13.9725C144.817 13.9725 146.473 15.4845 146.473 18.2385V24.0885H143.953Z" fill="black"/>
</svg>
